<svg id="visual" viewBox="0 0 9999 1000" width="9999" height="1000" xmlns="http://www.w3.org/2000/svg" xmlns:xlink="http://www.w3.org/1999/xlink" version="1.1"><path d="M0 761L72.5 740.5C145 720 290 679 434.8 664.3C579.7 649.7 724.3 661.3 869.2 700.3C1014 739.3 1159 805.7 1304 823.5C1449 841.3 1594 810.7 1739 825C1884 839.3 2029 898.7 2173.8 890.8C2318.7 883 2463.3 808 2608.2 769.5C2753 731 2898 729 3043 727.2C3188 725.3 3333 723.7 3478 727.5C3623 731.3 3768 740.7 3912.8 752.2C4057.7 763.7 4202.3 777.3 4347.2 816.8C4492 856.3 4637 921.7 4782 902.7C4927 883.7 5072 780.3 5217 775.7C5362 771 5507 865 5651.8 872.2C5796.7 879.3 5941.3 799.7 6086.2 795C6231 790.3 6376 860.7 6521 827.8C6666 795 6811 659 6956 635.8C7101 612.7 7246 702.3 7390.8 697.8C7535.7 693.3 7680.3 594.7 7825.2 610.8C7970 627 8115 758 8260 841.8C8405 925.7 8550 962.3 8695 909.7C8840 857 8985 715 9129.8 683.7C9274.7 652.3 9419.3 731.7 9564.2 722.2C9709 712.7 9854 614.3 9926.5 565.2L9999 516L9999 0L9926.5 0C9854 0 9709 0 9564.2 0C9419.3 0 9274.7 0 9129.8 0C8985 0 8840 0 8695 0C8550 0 8405 0 8260 0C8115 0 7970 0 7825.2 0C7680.3 0 7535.7 0 7390.8 0C7246 0 7101 0 6956 0C6811 0 6666 0 6521 0C6376 0 6231 0 6086.2 0C5941.3 0 5796.7 0 5651.8 0C5507 0 5362 0 5217 0C5072 0 4927 0 4782 0C4637 0 4492 0 4347.2 0C4202.3 0 4057.7 0 3912.8 0C3768 0 3623 0 3478 0C3333 0 3188 0 3043 0C2898 0 2753 0 2608.2 0C2463.3 0 2318.7 0 2173.8 0C2029 0 1884 0 1739 0C1594 0 1449 0 1304 0C1159 0 1014 0 869.2 0C724.3 0 579.7 0 434.8 0C290 0 145 0 72.5 0L0 0Z" fill="#bbd2ff"></path><path d="M0 539L72.5 546.5C145 554 290 569 434.8 595.5C579.7 622 724.3 660 869.2 625.8C1014 591.7 1159 485.3 1304 502C1449 518.7 1594 658.3 1739 729.2C1884 800 2029 802 2173.8 771.3C2318.7 740.7 2463.3 677.3 2608.2 664.8C2753 652.3 2898 690.7 3043 717.8C3188 745 3333 761 3478 768.7C3623 776.3 3768 775.7 3912.8 741C4057.7 706.3 4202.3 637.7 4347.2 647C4492 656.3 4637 743.7 4782 714C4927 684.3 5072 537.7 5217 471.3C5362 405 5507 419 5651.8 435.2C5796.7 451.3 5941.3 469.7 6086.2 470.5C6231 471.3 6376 454.7 6521 449.2C6666 443.7 6811 449.3 6956 449C7101 448.7 7246 442.3 7390.8 452.2C7535.7 462 7680.3 488 7825.2 522.5C7970 557 8115 600 8260 582.7C8405 565.3 8550 487.7 8695 464.3C8840 441 8985 472 9129.8 542.3C9274.7 612.7 9419.3 722.3 9564.2 771C9709 819.7 9854 807.3 9926.5 801.2L9999 795L9999 0L9926.5 0C9854 0 9709 0 9564.2 0C9419.3 0 9274.7 0 9129.8 0C8985 0 8840 0 8695 0C8550 0 8405 0 8260 0C8115 0 7970 0 7825.2 0C7680.3 0 7535.7 0 7390.8 0C7246 0 7101 0 6956 0C6811 0 6666 0 6521 0C6376 0 6231 0 6086.2 0C5941.3 0 5796.7 0 5651.8 0C5507 0 5362 0 5217 0C5072 0 4927 0 4782 0C4637 0 4492 0 4347.2 0C4202.3 0 4057.7 0 3912.8 0C3768 0 3623 0 3478 0C3333 0 3188 0 3043 0C2898 0 2753 0 2608.2 0C2463.3 0 2318.7 0 2173.8 0C2029 0 1884 0 1739 0C1594 0 1449 0 1304 0C1159 0 1014 0 869.2 0C724.3 0 579.7 0 434.8 0C290 0 145 0 72.5 0L0 0Z" fill="#f7b1d4"></path><path d="M0 663L72.5 630.3C145 597.7 290 532.3 434.8 461.3C579.7 390.3 724.3 313.7 869.2 319.7C1014 325.7 1159 414.3 1304 460C1449 505.7 1594 508.3 1739 499C1884 489.7 2029 468.3 2173.8 457.2C2318.7 446 2463.3 445 2608.2 421.8C2753 398.7 2898 353.3 3043 388C3188 422.7 3333 537.3 3478 594.3C3623 651.3 3768 650.7 3912.8 580.8C4057.7 511 4202.3 372 4347.2 359.8C4492 347.7 4637 462.3 4782 492C4927 521.7 5072 466.3 5217 423C5362 379.7 5507 348.3 5651.8 328.3C5796.7 308.3 5941.3 299.7 6086.2 353.2C6231 406.7 6376 522.3 6521 516.5C6666 510.7 6811 383.3 6956 380.8C7101 378.3 7246 500.7 7390.8 500.8C7535.7 501 7680.3 379 7825.2 354.7C7970 330.3 8115 403.7 8260 453.8C8405 504 8550 531 8695 532.2C8840 533.3 8985 508.7 9129.8 516C9274.7 523.3 9419.3 562.7 9564.2 538.5C9709 514.3 9854 426.7 9926.5 382.8L9999 339L9999 0L9926.5 0C9854 0 9709 0 9564.2 0C9419.3 0 9274.7 0 9129.8 0C8985 0 8840 0 8695 0C8550 0 8405 0 8260 0C8115 0 7970 0 7825.2 0C7680.3 0 7535.7 0 7390.8 0C7246 0 7101 0 6956 0C6811 0 6666 0 6521 0C6376 0 6231 0 6086.2 0C5941.3 0 5796.7 0 5651.8 0C5507 0 5362 0 5217 0C5072 0 4927 0 4782 0C4637 0 4492 0 4347.2 0C4202.3 0 4057.7 0 3912.8 0C3768 0 3623 0 3478 0C3333 0 3188 0 3043 0C2898 0 2753 0 2608.2 0C2463.3 0 2318.7 0 2173.8 0C2029 0 1884 0 1739 0C1594 0 1449 0 1304 0C1159 0 1014 0 869.2 0C724.3 0 579.7 0 434.8 0C290 0 145 0 72.5 0L0 0Z" fill="#ffa69f"></path><path d="M0 327L72.5 309.7C145 292.3 290 257.7 434.8 285.3C579.7 313 724.3 403 869.2 423.5C1014 444 1159 395 1304 338.7C1449 282.3 1594 218.7 1739 232.8C1884 247 2029 339 2173.8 378.5C2318.7 418 2463.3 405 2608.2 383.2C2753 361.3 2898 330.7 3043 298.2C3188 265.7 3333 231.3 3478 239.5C3623 247.7 3768 298.3 3912.8 315.7C4057.7 333 4202.3 317 4347.2 331.5C4492 346 4637 391 4782 400.7C4927 410.3 5072 384.7 5217 347.2C5362 309.7 5507 260.3 5651.8 247.2C5796.7 234 5941.3 257 6086.2 287.8C6231 318.7 6376 357.3 6521 364.5C6666 371.7 6811 347.3 6956 353.3C7101 359.3 7246 395.7 7390.8 376.8C7535.7 358 7680.3 284 7825.2 284.8C7970 285.7 8115 361.3 8260 352.8C8405 344.3 8550 251.7 8695 216.3C8840 181 8985 203 9129.8 197.3C9274.7 191.7 9419.3 158.3 9564.2 183.2C9709 208 9854 291 9926.5 332.5L9999 374L9999 0L9926.5 0C9854 0 9709 0 9564.2 0C9419.3 0 9274.7 0 9129.8 0C8985 0 8840 0 8695 0C8550 0 8405 0 8260 0C8115 0 7970 0 7825.2 0C7680.3 0 7535.7 0 7390.8 0C7246 0 7101 0 6956 0C6811 0 6666 0 6521 0C6376 0 6231 0 6086.2 0C5941.3 0 5796.7 0 5651.8 0C5507 0 5362 0 5217 0C5072 0 4927 0 4782 0C4637 0 4492 0 4347.2 0C4202.3 0 4057.7 0 3912.8 0C3768 0 3623 0 3478 0C3333 0 3188 0 3043 0C2898 0 2753 0 2608.2 0C2463.3 0 2318.7 0 2173.8 0C2029 0 1884 0 1739 0C1594 0 1449 0 1304 0C1159 0 1014 0 869.2 0C724.3 0 579.7 0 434.8 0C290 0 145 0 72.5 0L0 0Z" fill="#f7b1d4"></path><path d="M0 312L72.5 298.7C145 285.3 290 258.7 434.8 236.2C579.7 213.7 724.3 195.3 869.2 165.3C1014 135.3 1159 93.7 1304 73.7C1449 53.7 1594 55.3 1739 63.3C1884 71.3 2029 85.7 2173.8 108.2C2318.7 130.7 2463.3 161.3 2608.2 185C2753 208.7 2898 225.3 3043 243.3C3188 261.3 3333 280.7 3478 279.2C3623 277.7 3768 255.3 3912.8 240.3C4057.7 225.3 4202.3 217.7 4347.2 180C4492 142.3 4637 74.7 4782 42.3C4927 10 5072 13 5217 67C5362 121 5507 226 5651.8 256.2C5796.7 286.3 5941.3 241.7 6086.2 210.2C6231 178.7 6376 160.3 6521 132C6666 103.7 6811 65.3 6956 45.2C7101 25 7246 23 7390.8 38.5C7535.7 54 7680.3 87 7825.2 136.3C7970 185.7 8115 251.3 8260 252.3C8405 253.3 8550 189.7 8695 160.3C8840 131 8985 136 9129.8 145.5C9274.7 155 9419.3 169 9564.2 173.2C9709 177.3 9854 171.7 9926.5 168.8L9999 166L9999 0L9926.5 0C9854 0 9709 0 9564.2 0C9419.3 0 9274.7 0 9129.8 0C8985 0 8840 0 8695 0C8550 0 8405 0 8260 0C8115 0 7970 0 7825.2 0C7680.3 0 7535.7 0 7390.8 0C7246 0 7101 0 6956 0C6811 0 6666 0 6521 0C6376 0 6231 0 6086.2 0C5941.3 0 5796.7 0 5651.8 0C5507 0 5362 0 5217 0C5072 0 4927 0 4782 0C4637 0 4492 0 4347.2 0C4202.3 0 4057.7 0 3912.8 0C3768 0 3623 0 3478 0C3333 0 3188 0 3043 0C2898 0 2753 0 2608.2 0C2463.3 0 2318.7 0 2173.8 0C2029 0 1884 0 1739 0C1594 0 1449 0 1304 0C1159 0 1014 0 869.2 0C724.3 0 579.7 0 434.8 0C290 0 145 0 72.5 0L0 0Z" fill="#bbd2ff"></path></svg>